<?xml version="1.0" encoding="UTF-8"?>
<svg width="111px" height="121px" viewBox="0 0 111 121" version="1.1" xmlns="http://www.w3.org/2000/svg" xmlns:xlink="http://www.w3.org/1999/xlink">
    <!-- Generator: Sketch 55.2 (78181) - https://sketchapp.com -->
    <title>Icon/Social Media Analytics</title>
    <desc>Created with Sketch.</desc>
    <g id="Page-1" stroke="none" stroke-width="1" fill="none" fill-rule="evenodd">
        <g id="Incede_Website" transform="translate(-990.000000, -2241.000000)">
            <g id="What-We-Do" transform="translate(100.000000, 1611.000000)">
                <g id="Icon/Social-Media-Analytics" transform="translate(875.000000, 620.000000)">
                    <rect id="Rectangle" fill-opacity="0" fill="#CACACA" x="0" y="0" width="140" height="140"></rect>
                    <path d="M79,21.5773503 L124.631397,47.9226497 C125.250199,48.2799153 125.631397,48.9401694 125.631397,49.6547005 L125.631397,102.345299 C125.631397,103.059831 125.250199,103.720085 124.631397,104.07735 L79,130.42265 C78.3811978,130.779915 77.6188022,130.779915 77,130.42265 L31.3686028,104.07735 C30.7498006,103.720085 30.3686028,103.059831 30.3686028,102.345299 L30.3686028,49.6547005 C30.3686028,48.9401694 30.7498006,48.2799153 31.3686028,47.9226497 L77,21.5773503 C77.6188022,21.2200847 78.3811978,21.2200847 79,21.5773503 Z" id="Polygon" fill-opacity="0.36" fill="#ED8D58"></path>
                    <path d="M68,10.5773503 L117.961524,39.4226497 C118.580326,39.7799153 118.961524,40.4401694 118.961524,41.1547005 L118.961524,98.8452995 C118.961524,99.5598306 118.580326,100.220085 117.961524,100.57735 L68,129.42265 C67.3811978,129.779915 66.6188022,129.779915 66,129.42265 L16.0384758,100.57735 C15.4196736,100.220085 15.0384758,99.5598306 15.0384758,98.8452995 L15.0384758,41.1547005 C15.0384758,40.4401694 15.4196736,39.7799153 16.0384758,39.4226497 L66,10.5773503 C66.6188022,10.2200847 67.3811978,10.2200847 68,10.5773503 Z" id="Polygon" fill="#5C4ABB"></path>
                    <circle id="Oval" fill="#FFFFFF" cx="49.5" cy="70.5" r="6.5"></circle>
                    <circle id="Oval-" fill="#FFFFFF" cx="81" cy="51" r="5"></circle>
                    <circle id="Oval" fill="#FFFFFF" cx="81" cy="88" r="5"></circle>
                    <path d="M49.5,69.5 L81.251052,50.7366796" id="Path-4" stroke="#FFFFFF" stroke-width="2.5" stroke-linecap="round" stroke-linejoin="round"></path>
                    <path d="M49.5,89.5 L81.251052,70.7366796" id="Path-4" stroke="#FFFFFF" stroke-width="2.5" stroke-linecap="round" stroke-linejoin="round" transform="translate(65.375526, 80.118340) scale(1, -1) translate(-65.375526, -80.118340) "></path>
                </g>
            </g>
        </g>
    </g>
</svg>